<mxfile host="app.diagrams.net" agent="Mozilla/5.0 (Windows NT 10.0; Win64; x64) AppleWebKit/537.36 (KHTML, like Gecko) Chrome/130.0.0.0 Safari/537.36" version="24.8.6">
  <diagram name="Страница — 1" id="NZbn_GLvDckBzevisfvI">
    <mxGraphModel dx="1900" dy="396" grid="0" gridSize="10" guides="1" tooltips="1" connect="1" arrows="1" fold="1" page="0" pageScale="1" pageWidth="1169" pageHeight="827" math="0" shadow="0">
      <root>
        <mxCell id="0" />
        <mxCell id="1" parent="0" />
        <mxCell id="svQCepNTFexyG-QFbBfc-1" value="Авторизация" style="ellipse;whiteSpace=wrap;html=1;fontFamily=Times New Roman;" parent="1" vertex="1">
          <mxGeometry x="178" y="827" width="110" height="70" as="geometry" />
        </mxCell>
        <mxCell id="p_r1cKh_CzRkiVNsoP0s-77" style="edgeStyle=none;curved=1;rounded=0;orthogonalLoop=1;jettySize=auto;html=1;entryX=0;entryY=0.5;entryDx=0;entryDy=0;fontSize=12;startSize=8;endSize=8;endArrow=none;endFill=0;" parent="1" source="svQCepNTFexyG-QFbBfc-3" target="OeR3qFUjESxq3L1rICcf-10" edge="1">
          <mxGeometry relative="1" as="geometry" />
        </mxCell>
        <mxCell id="p_r1cKh_CzRkiVNsoP0s-78" style="edgeStyle=none;curved=1;rounded=0;orthogonalLoop=1;jettySize=auto;html=1;entryX=0;entryY=0.5;entryDx=0;entryDy=0;fontSize=12;startSize=8;endSize=8;endArrow=none;endFill=0;" parent="1" source="svQCepNTFexyG-QFbBfc-3" target="p_r1cKh_CzRkiVNsoP0s-5" edge="1">
          <mxGeometry relative="1" as="geometry" />
        </mxCell>
        <mxCell id="svQCepNTFexyG-QFbBfc-3" value="Гость" style="shape=umlActor;verticalLabelPosition=bottom;verticalAlign=top;html=1;outlineConnect=0;fontFamily=Times New Roman;" parent="1" vertex="1">
          <mxGeometry x="-62" y="672" width="30" height="60" as="geometry" />
        </mxCell>
        <mxCell id="OeR3qFUjESxq3L1rICcf-11" style="edgeStyle=none;shape=connector;rounded=0;orthogonalLoop=1;jettySize=auto;html=1;labelBackgroundColor=default;strokeColor=default;align=center;verticalAlign=middle;fontFamily=Helvetica;fontSize=11;fontColor=default;endArrow=none;endFill=0;" parent="1" source="svQCepNTFexyG-QFbBfc-7" target="OeR3qFUjESxq3L1rICcf-10" edge="1">
          <mxGeometry relative="1" as="geometry" />
        </mxCell>
        <mxCell id="OeR3qFUjESxq3L1rICcf-12" style="edgeStyle=none;shape=connector;rounded=0;orthogonalLoop=1;jettySize=auto;html=1;labelBackgroundColor=default;strokeColor=default;align=center;verticalAlign=middle;fontFamily=Helvetica;fontSize=11;fontColor=default;endArrow=none;endFill=0;" parent="1" source="svQCepNTFexyG-QFbBfc-7" target="OeR3qFUjESxq3L1rICcf-9" edge="1">
          <mxGeometry relative="1" as="geometry" />
        </mxCell>
        <mxCell id="OeR3qFUjESxq3L1rICcf-13" style="edgeStyle=none;shape=connector;rounded=0;orthogonalLoop=1;jettySize=auto;html=1;labelBackgroundColor=default;strokeColor=default;align=center;verticalAlign=middle;fontFamily=Helvetica;fontSize=11;fontColor=default;endArrow=none;endFill=0;" parent="1" source="svQCepNTFexyG-QFbBfc-7" target="OeR3qFUjESxq3L1rICcf-8" edge="1">
          <mxGeometry relative="1" as="geometry" />
        </mxCell>
        <mxCell id="p_r1cKh_CzRkiVNsoP0s-63" style="edgeStyle=none;curved=1;rounded=0;orthogonalLoop=1;jettySize=auto;html=1;entryX=0;entryY=0.5;entryDx=0;entryDy=0;fontSize=12;startSize=8;endSize=8;endArrow=none;endFill=0;" parent="1" source="svQCepNTFexyG-QFbBfc-7" target="zMWsZsheXrGuxRjLxGXC-23" edge="1">
          <mxGeometry relative="1" as="geometry" />
        </mxCell>
        <mxCell id="p_r1cKh_CzRkiVNsoP0s-74" style="edgeStyle=none;curved=1;rounded=0;orthogonalLoop=1;jettySize=auto;html=1;fontSize=12;startSize=8;endSize=8;endArrow=none;endFill=0;" parent="1" source="svQCepNTFexyG-QFbBfc-7" target="svQCepNTFexyG-QFbBfc-1" edge="1">
          <mxGeometry relative="1" as="geometry" />
        </mxCell>
        <mxCell id="svQCepNTFexyG-QFbBfc-7" value="Пользователь" style="shape=umlActor;verticalLabelPosition=bottom;verticalAlign=top;html=1;outlineConnect=0;fontFamily=Times New Roman;" parent="1" vertex="1">
          <mxGeometry x="218" y="537" width="30" height="60" as="geometry" />
        </mxCell>
        <mxCell id="OeR3qFUjESxq3L1rICcf-7" value="Фильтровать&lt;div&gt;туры&lt;/div&gt;" style="ellipse;whiteSpace=wrap;html=1;fontFamily=Times New Roman;" parent="1" vertex="1">
          <mxGeometry x="98" y="507" width="110" height="70" as="geometry" />
        </mxCell>
        <mxCell id="OeR3qFUjESxq3L1rICcf-8" value="Бронировать&amp;nbsp;&lt;div&gt;тур&lt;/div&gt;" style="ellipse;whiteSpace=wrap;html=1;fontFamily=Times New Roman;" parent="1" vertex="1">
          <mxGeometry x="317" y="437" width="110" height="70" as="geometry" />
        </mxCell>
        <mxCell id="OeR3qFUjESxq3L1rICcf-9" value="Отставить отзыв на тур&amp;nbsp;&amp;nbsp;" style="ellipse;whiteSpace=wrap;html=1;fontFamily=Times New Roman;" parent="1" vertex="1">
          <mxGeometry x="178" y="407" width="110" height="70" as="geometry" />
        </mxCell>
        <mxCell id="p_r1cKh_CzRkiVNsoP0s-66" style="edgeStyle=none;curved=1;rounded=0;orthogonalLoop=1;jettySize=auto;html=1;entryX=0.5;entryY=1;entryDx=0;entryDy=0;fontSize=12;startSize=8;endSize=8;endArrow=none;endFill=0;startArrow=classic;startFill=1;dashed=1;" parent="1" source="OeR3qFUjESxq3L1rICcf-10" target="p_r1cKh_CzRkiVNsoP0s-64" edge="1">
          <mxGeometry relative="1" as="geometry" />
        </mxCell>
        <mxCell id="p_r1cKh_CzRkiVNsoP0s-68" value="&lt;font style=&quot;font-size: 10px;&quot;&gt;&amp;lt;&amp;lt;Extend&amp;gt;&amp;gt;&lt;/font&gt;" style="edgeLabel;html=1;align=center;verticalAlign=middle;resizable=0;points=[];fontSize=12;" parent="p_r1cKh_CzRkiVNsoP0s-66" vertex="1" connectable="0">
          <mxGeometry x="0.0734" y="1" relative="1" as="geometry">
            <mxPoint as="offset" />
          </mxGeometry>
        </mxCell>
        <mxCell id="p_r1cKh_CzRkiVNsoP0s-67" style="edgeStyle=none;curved=1;rounded=0;orthogonalLoop=1;jettySize=auto;html=1;entryX=0.5;entryY=1;entryDx=0;entryDy=0;fontSize=12;startSize=8;endSize=8;startArrow=classic;startFill=1;endArrow=none;endFill=0;dashed=1;" parent="1" source="OeR3qFUjESxq3L1rICcf-10" target="OeR3qFUjESxq3L1rICcf-7" edge="1">
          <mxGeometry relative="1" as="geometry" />
        </mxCell>
        <mxCell id="OeR3qFUjESxq3L1rICcf-10" value="Просмотреть туры" style="ellipse;whiteSpace=wrap;html=1;fontFamily=Times New Roman;" parent="1" vertex="1">
          <mxGeometry x="28" y="627" width="110" height="70" as="geometry" />
        </mxCell>
        <mxCell id="p_r1cKh_CzRkiVNsoP0s-47" style="edgeStyle=none;curved=1;rounded=0;orthogonalLoop=1;jettySize=auto;html=1;entryX=1;entryY=0.5;entryDx=0;entryDy=0;fontSize=12;startSize=8;endSize=8;dashed=1;" parent="1" source="OeR3qFUjESxq3L1rICcf-15" target="p_r1cKh_CzRkiVNsoP0s-23" edge="1">
          <mxGeometry relative="1" as="geometry" />
        </mxCell>
        <mxCell id="p_r1cKh_CzRkiVNsoP0s-48" style="edgeStyle=none;curved=1;rounded=0;orthogonalLoop=1;jettySize=auto;html=1;entryX=1;entryY=0.5;entryDx=0;entryDy=0;fontSize=12;startSize=8;endSize=8;dashed=1;" parent="1" source="OeR3qFUjESxq3L1rICcf-15" target="p_r1cKh_CzRkiVNsoP0s-28" edge="1">
          <mxGeometry relative="1" as="geometry" />
        </mxCell>
        <mxCell id="p_r1cKh_CzRkiVNsoP0s-49" style="edgeStyle=none;curved=1;rounded=0;orthogonalLoop=1;jettySize=auto;html=1;entryX=1;entryY=0.5;entryDx=0;entryDy=0;fontSize=12;startSize=8;endSize=8;dashed=1;" parent="1" source="OeR3qFUjESxq3L1rICcf-15" target="p_r1cKh_CzRkiVNsoP0s-22" edge="1">
          <mxGeometry relative="1" as="geometry" />
        </mxCell>
        <mxCell id="p_r1cKh_CzRkiVNsoP0s-50" style="edgeStyle=none;curved=1;rounded=0;orthogonalLoop=1;jettySize=auto;html=1;entryX=1;entryY=0.5;entryDx=0;entryDy=0;fontSize=12;startSize=8;endSize=8;dashed=1;" parent="1" source="OeR3qFUjESxq3L1rICcf-15" target="p_r1cKh_CzRkiVNsoP0s-21" edge="1">
          <mxGeometry relative="1" as="geometry" />
        </mxCell>
        <mxCell id="p_r1cKh_CzRkiVNsoP0s-51" style="edgeStyle=none;curved=1;rounded=0;orthogonalLoop=1;jettySize=auto;html=1;entryX=1;entryY=0.5;entryDx=0;entryDy=0;fontSize=12;startSize=8;endSize=8;dashed=1;" parent="1" source="OeR3qFUjESxq3L1rICcf-15" target="p_r1cKh_CzRkiVNsoP0s-19" edge="1">
          <mxGeometry relative="1" as="geometry" />
        </mxCell>
        <mxCell id="p_r1cKh_CzRkiVNsoP0s-52" style="edgeStyle=none;curved=1;rounded=0;orthogonalLoop=1;jettySize=auto;html=1;entryX=1;entryY=0.5;entryDx=0;entryDy=0;fontSize=12;startSize=8;endSize=8;dashed=1;" parent="1" source="OeR3qFUjESxq3L1rICcf-15" target="p_r1cKh_CzRkiVNsoP0s-20" edge="1">
          <mxGeometry relative="1" as="geometry" />
        </mxCell>
        <mxCell id="p_r1cKh_CzRkiVNsoP0s-53" style="edgeStyle=none;curved=1;rounded=0;orthogonalLoop=1;jettySize=auto;html=1;entryX=1;entryY=0.5;entryDx=0;entryDy=0;fontSize=12;startSize=8;endSize=8;dashed=1;" parent="1" source="OeR3qFUjESxq3L1rICcf-15" target="p_r1cKh_CzRkiVNsoP0s-24" edge="1">
          <mxGeometry relative="1" as="geometry" />
        </mxCell>
        <mxCell id="OeR3qFUjESxq3L1rICcf-15" value="Добавить тур" style="ellipse;whiteSpace=wrap;html=1;fontFamily=Times New Roman;" parent="1" vertex="1">
          <mxGeometry x="1128" y="827" width="110" height="70" as="geometry" />
        </mxCell>
        <mxCell id="OeR3qFUjESxq3L1rICcf-21" value="Удалить тур" style="ellipse;whiteSpace=wrap;html=1;fontFamily=Times New Roman;" parent="1" vertex="1">
          <mxGeometry x="298" y="827" width="110" height="70" as="geometry" />
        </mxCell>
        <mxCell id="zMWsZsheXrGuxRjLxGXC-29" style="edgeStyle=none;curved=1;rounded=0;orthogonalLoop=1;jettySize=auto;html=1;entryX=0.5;entryY=0;entryDx=0;entryDy=0;fontSize=12;startSize=8;endSize=8;endArrow=none;endFill=0;" parent="1" source="zMWsZsheXrGuxRjLxGXC-20" target="OeR3qFUjESxq3L1rICcf-15" edge="1">
          <mxGeometry relative="1" as="geometry" />
        </mxCell>
        <mxCell id="zMWsZsheXrGuxRjLxGXC-30" style="edgeStyle=none;curved=1;rounded=0;orthogonalLoop=1;jettySize=auto;html=1;entryX=0.5;entryY=0;entryDx=0;entryDy=0;fontSize=12;startSize=8;endSize=8;endArrow=none;endFill=0;" parent="1" source="zMWsZsheXrGuxRjLxGXC-20" target="OeR3qFUjESxq3L1rICcf-21" edge="1">
          <mxGeometry relative="1" as="geometry" />
        </mxCell>
        <mxCell id="zMWsZsheXrGuxRjLxGXC-31" style="edgeStyle=none;curved=1;rounded=0;orthogonalLoop=1;jettySize=auto;html=1;entryX=0.5;entryY=0;entryDx=0;entryDy=0;fontSize=12;startSize=8;endSize=8;endArrow=none;endFill=0;" parent="1" source="zMWsZsheXrGuxRjLxGXC-20" target="zMWsZsheXrGuxRjLxGXC-28" edge="1">
          <mxGeometry relative="1" as="geometry" />
        </mxCell>
        <mxCell id="zMWsZsheXrGuxRjLxGXC-32" style="edgeStyle=none;curved=1;rounded=0;orthogonalLoop=1;jettySize=auto;html=1;entryX=0.5;entryY=0;entryDx=0;entryDy=0;fontSize=12;startSize=8;endSize=8;endArrow=none;endFill=0;" parent="1" source="zMWsZsheXrGuxRjLxGXC-20" target="zMWsZsheXrGuxRjLxGXC-27" edge="1">
          <mxGeometry relative="1" as="geometry" />
        </mxCell>
        <mxCell id="zMWsZsheXrGuxRjLxGXC-33" style="edgeStyle=none;curved=1;rounded=0;orthogonalLoop=1;jettySize=auto;html=1;entryX=0.5;entryY=0;entryDx=0;entryDy=0;fontSize=12;startSize=8;endSize=8;endArrow=none;endFill=0;" parent="1" source="zMWsZsheXrGuxRjLxGXC-20" target="zMWsZsheXrGuxRjLxGXC-26" edge="1">
          <mxGeometry relative="1" as="geometry" />
        </mxCell>
        <mxCell id="p_r1cKh_CzRkiVNsoP0s-14" style="edgeStyle=none;curved=1;rounded=0;orthogonalLoop=1;jettySize=auto;html=1;exitX=0;exitY=0.3333333333333333;exitDx=0;exitDy=0;exitPerimeter=0;entryX=0.5;entryY=0;entryDx=0;entryDy=0;fontSize=12;startSize=8;endSize=8;endArrow=none;endFill=0;" parent="1" source="zMWsZsheXrGuxRjLxGXC-20" target="svQCepNTFexyG-QFbBfc-1" edge="1">
          <mxGeometry relative="1" as="geometry" />
        </mxCell>
        <mxCell id="zMWsZsheXrGuxRjLxGXC-20" value="Менеджер" style="shape=umlActor;verticalLabelPosition=bottom;verticalAlign=top;html=1;outlineConnect=0;fontFamily=Times New Roman;" parent="1" vertex="1">
          <mxGeometry x="697" y="402" width="30" height="60" as="geometry" />
        </mxCell>
        <mxCell id="zMWsZsheXrGuxRjLxGXC-23" value="Добавить тур в избранное" style="ellipse;whiteSpace=wrap;html=1;fontFamily=Times New Roman;" parent="1" vertex="1">
          <mxGeometry x="317" y="532" width="110" height="70" as="geometry" />
        </mxCell>
        <mxCell id="p_r1cKh_CzRkiVNsoP0s-29" style="edgeStyle=none;curved=1;rounded=0;orthogonalLoop=1;jettySize=auto;html=1;entryX=0;entryY=0.5;entryDx=0;entryDy=0;fontSize=12;startSize=8;endSize=8;dashed=1;" parent="1" source="zMWsZsheXrGuxRjLxGXC-26" target="p_r1cKh_CzRkiVNsoP0s-23" edge="1">
          <mxGeometry relative="1" as="geometry" />
        </mxCell>
        <mxCell id="p_r1cKh_CzRkiVNsoP0s-39" value="&amp;lt;&amp;lt;Include&amp;gt;&amp;gt;" style="edgeLabel;html=1;align=center;verticalAlign=middle;resizable=0;points=[];fontSize=10;" parent="p_r1cKh_CzRkiVNsoP0s-29" vertex="1" connectable="0">
          <mxGeometry x="0.611" y="2" relative="1" as="geometry">
            <mxPoint x="-4" y="-4" as="offset" />
          </mxGeometry>
        </mxCell>
        <mxCell id="p_r1cKh_CzRkiVNsoP0s-30" style="edgeStyle=none;curved=1;rounded=0;orthogonalLoop=1;jettySize=auto;html=1;entryX=0;entryY=0.5;entryDx=0;entryDy=0;fontSize=12;startSize=8;endSize=8;dashed=1;" parent="1" source="zMWsZsheXrGuxRjLxGXC-26" target="p_r1cKh_CzRkiVNsoP0s-28" edge="1">
          <mxGeometry relative="1" as="geometry" />
        </mxCell>
        <mxCell id="p_r1cKh_CzRkiVNsoP0s-31" style="edgeStyle=none;curved=1;rounded=0;orthogonalLoop=1;jettySize=auto;html=1;entryX=0;entryY=0.5;entryDx=0;entryDy=0;fontSize=12;startSize=8;endSize=8;dashed=1;" parent="1" source="zMWsZsheXrGuxRjLxGXC-26" target="p_r1cKh_CzRkiVNsoP0s-22" edge="1">
          <mxGeometry relative="1" as="geometry" />
        </mxCell>
        <mxCell id="p_r1cKh_CzRkiVNsoP0s-32" style="edgeStyle=none;curved=1;rounded=0;orthogonalLoop=1;jettySize=auto;html=1;fontSize=12;startSize=8;endSize=8;dashed=1;" parent="1" source="zMWsZsheXrGuxRjLxGXC-26" target="p_r1cKh_CzRkiVNsoP0s-21" edge="1">
          <mxGeometry relative="1" as="geometry" />
        </mxCell>
        <mxCell id="p_r1cKh_CzRkiVNsoP0s-33" style="edgeStyle=none;curved=1;rounded=0;orthogonalLoop=1;jettySize=auto;html=1;entryX=0;entryY=0.5;entryDx=0;entryDy=0;fontSize=12;startSize=8;endSize=8;dashed=1;" parent="1" source="zMWsZsheXrGuxRjLxGXC-26" target="p_r1cKh_CzRkiVNsoP0s-19" edge="1">
          <mxGeometry relative="1" as="geometry" />
        </mxCell>
        <mxCell id="p_r1cKh_CzRkiVNsoP0s-34" style="edgeStyle=none;curved=1;rounded=0;orthogonalLoop=1;jettySize=auto;html=1;entryX=0;entryY=0.5;entryDx=0;entryDy=0;fontSize=12;startSize=8;endSize=8;dashed=1;" parent="1" source="zMWsZsheXrGuxRjLxGXC-26" target="p_r1cKh_CzRkiVNsoP0s-20" edge="1">
          <mxGeometry relative="1" as="geometry" />
        </mxCell>
        <mxCell id="p_r1cKh_CzRkiVNsoP0s-35" style="edgeStyle=none;curved=1;rounded=0;orthogonalLoop=1;jettySize=auto;html=1;entryX=0;entryY=0.5;entryDx=0;entryDy=0;fontSize=12;startSize=8;endSize=8;dashed=1;" parent="1" source="zMWsZsheXrGuxRjLxGXC-26" target="p_r1cKh_CzRkiVNsoP0s-24" edge="1">
          <mxGeometry relative="1" as="geometry" />
        </mxCell>
        <mxCell id="zMWsZsheXrGuxRjLxGXC-26" value="Редактировать тур" style="ellipse;whiteSpace=wrap;html=1;fontFamily=Times New Roman;" parent="1" vertex="1">
          <mxGeometry x="657" y="827" width="110" height="70" as="geometry" />
        </mxCell>
        <mxCell id="zMWsZsheXrGuxRjLxGXC-27" value="Принять заявку на тур" style="ellipse;whiteSpace=wrap;html=1;fontFamily=Times New Roman;" parent="1" vertex="1">
          <mxGeometry x="538" y="827" width="110" height="70" as="geometry" />
        </mxCell>
        <mxCell id="zMWsZsheXrGuxRjLxGXC-28" value="Отменить бронь тура пользователя" style="ellipse;whiteSpace=wrap;html=1;fontFamily=Times New Roman;" parent="1" vertex="1">
          <mxGeometry x="417" y="827" width="110" height="70" as="geometry" />
        </mxCell>
        <mxCell id="zMWsZsheXrGuxRjLxGXC-39" style="edgeStyle=none;curved=1;rounded=0;orthogonalLoop=1;jettySize=auto;html=1;entryX=0.5;entryY=1;entryDx=0;entryDy=0;fontSize=12;startSize=8;endSize=8;endArrow=none;endFill=0;" parent="1" source="zMWsZsheXrGuxRjLxGXC-35" target="OeR3qFUjESxq3L1rICcf-15" edge="1">
          <mxGeometry relative="1" as="geometry" />
        </mxCell>
        <mxCell id="zMWsZsheXrGuxRjLxGXC-40" style="edgeStyle=none;curved=1;rounded=0;orthogonalLoop=1;jettySize=auto;html=1;entryX=0.5;entryY=1;entryDx=0;entryDy=0;fontSize=12;startSize=8;endSize=8;endArrow=none;endFill=0;" parent="1" source="zMWsZsheXrGuxRjLxGXC-35" target="OeR3qFUjESxq3L1rICcf-21" edge="1">
          <mxGeometry relative="1" as="geometry" />
        </mxCell>
        <mxCell id="zMWsZsheXrGuxRjLxGXC-41" style="edgeStyle=none;curved=1;rounded=0;orthogonalLoop=1;jettySize=auto;html=1;entryX=0.5;entryY=1;entryDx=0;entryDy=0;fontSize=12;startSize=8;endSize=8;endArrow=none;endFill=0;" parent="1" source="zMWsZsheXrGuxRjLxGXC-35" target="zMWsZsheXrGuxRjLxGXC-28" edge="1">
          <mxGeometry relative="1" as="geometry" />
        </mxCell>
        <mxCell id="zMWsZsheXrGuxRjLxGXC-42" style="edgeStyle=none;curved=1;rounded=0;orthogonalLoop=1;jettySize=auto;html=1;entryX=0.5;entryY=1;entryDx=0;entryDy=0;fontSize=12;startSize=8;endSize=8;endArrow=none;endFill=0;" parent="1" source="zMWsZsheXrGuxRjLxGXC-35" target="zMWsZsheXrGuxRjLxGXC-27" edge="1">
          <mxGeometry relative="1" as="geometry" />
        </mxCell>
        <mxCell id="zMWsZsheXrGuxRjLxGXC-43" style="edgeStyle=none;curved=1;rounded=0;orthogonalLoop=1;jettySize=auto;html=1;entryX=0.5;entryY=1;entryDx=0;entryDy=0;fontSize=12;startSize=8;endSize=8;endArrow=none;endFill=0;" parent="1" source="zMWsZsheXrGuxRjLxGXC-35" target="zMWsZsheXrGuxRjLxGXC-26" edge="1">
          <mxGeometry relative="1" as="geometry" />
        </mxCell>
        <mxCell id="p_r1cKh_CzRkiVNsoP0s-18" style="edgeStyle=none;curved=1;rounded=0;orthogonalLoop=1;jettySize=auto;html=1;entryX=0.5;entryY=1;entryDx=0;entryDy=0;fontSize=12;startSize=8;endSize=8;endArrow=none;endFill=0;" parent="1" source="zMWsZsheXrGuxRjLxGXC-35" target="svQCepNTFexyG-QFbBfc-1" edge="1">
          <mxGeometry relative="1" as="geometry" />
        </mxCell>
        <mxCell id="nBBlVvWBp2isnyXZccdl-3" style="edgeStyle=none;curved=1;rounded=0;orthogonalLoop=1;jettySize=auto;html=1;entryX=0;entryY=0.5;entryDx=0;entryDy=0;fontSize=12;startSize=8;endSize=8;endArrow=none;endFill=0;" parent="1" source="zMWsZsheXrGuxRjLxGXC-35" target="zMWsZsheXrGuxRjLxGXC-45" edge="1">
          <mxGeometry relative="1" as="geometry" />
        </mxCell>
        <mxCell id="nBBlVvWBp2isnyXZccdl-4" style="edgeStyle=none;curved=1;rounded=0;orthogonalLoop=1;jettySize=auto;html=1;entryX=0;entryY=0.5;entryDx=0;entryDy=0;fontSize=12;startSize=8;endSize=8;endArrow=none;endFill=0;" parent="1" source="zMWsZsheXrGuxRjLxGXC-35" target="zMWsZsheXrGuxRjLxGXC-44" edge="1">
          <mxGeometry relative="1" as="geometry" />
        </mxCell>
        <mxCell id="nBBlVvWBp2isnyXZccdl-5" style="edgeStyle=none;curved=1;rounded=0;orthogonalLoop=1;jettySize=auto;html=1;entryX=1;entryY=0.5;entryDx=0;entryDy=0;fontSize=12;startSize=8;endSize=8;endArrow=none;endFill=0;" parent="1" source="zMWsZsheXrGuxRjLxGXC-35" target="zMWsZsheXrGuxRjLxGXC-46" edge="1">
          <mxGeometry relative="1" as="geometry" />
        </mxCell>
        <mxCell id="zMWsZsheXrGuxRjLxGXC-35" value="Администратор" style="shape=umlActor;verticalLabelPosition=bottom;verticalAlign=top;html=1;outlineConnect=0;fontFamily=Times New Roman;" parent="1" vertex="1">
          <mxGeometry x="702" y="1246" width="30" height="60" as="geometry" />
        </mxCell>
        <mxCell id="zMWsZsheXrGuxRjLxGXC-44" value="Блокировать аккаунт пользователя" style="ellipse;whiteSpace=wrap;html=1;fontFamily=Times New Roman;" parent="1" vertex="1">
          <mxGeometry x="798" y="1207" width="110" height="70" as="geometry" />
        </mxCell>
        <mxCell id="zMWsZsheXrGuxRjLxGXC-45" value="Удалить аккаунт пользователя" style="ellipse;whiteSpace=wrap;html=1;fontFamily=Times New Roman;" parent="1" vertex="1">
          <mxGeometry x="798" y="1282" width="110" height="70" as="geometry" />
        </mxCell>
        <mxCell id="zMWsZsheXrGuxRjLxGXC-46" value="Удалить отзыв к туру" style="ellipse;whiteSpace=wrap;html=1;fontFamily=Times New Roman;" parent="1" vertex="1">
          <mxGeometry x="527" y="1241" width="110" height="70" as="geometry" />
        </mxCell>
        <mxCell id="p_r1cKh_CzRkiVNsoP0s-5" value="Регистрация" style="ellipse;whiteSpace=wrap;html=1;fontFamily=Times New Roman;" parent="1" vertex="1">
          <mxGeometry x="28" y="727" width="110" height="70" as="geometry" />
        </mxCell>
        <mxCell id="p_r1cKh_CzRkiVNsoP0s-19" value="Выбрать маршрут" style="ellipse;whiteSpace=wrap;html=1;fontFamily=Times New Roman;" parent="1" vertex="1">
          <mxGeometry x="828" y="907" width="110" height="70" as="geometry" />
        </mxCell>
        <mxCell id="p_r1cKh_CzRkiVNsoP0s-20" value="Добавить фото" style="ellipse;whiteSpace=wrap;html=1;fontFamily=Times New Roman;" parent="1" vertex="1">
          <mxGeometry x="828" y="987" width="110" height="70" as="geometry" />
        </mxCell>
        <mxCell id="p_r1cKh_CzRkiVNsoP0s-21" value="Выбрать дату прибытия и убытия" style="ellipse;whiteSpace=wrap;html=1;fontFamily=Times New Roman;" parent="1" vertex="1">
          <mxGeometry x="878" y="827" width="110" height="70" as="geometry" />
        </mxCell>
        <mxCell id="p_r1cKh_CzRkiVNsoP0s-22" value="Выбрать город" style="ellipse;whiteSpace=wrap;html=1;fontFamily=Times New Roman;" parent="1" vertex="1">
          <mxGeometry x="828" y="747" width="110" height="70" as="geometry" />
        </mxCell>
        <mxCell id="p_r1cKh_CzRkiVNsoP0s-23" value="Ввести название" style="ellipse;whiteSpace=wrap;html=1;fontFamily=Times New Roman;" parent="1" vertex="1">
          <mxGeometry x="798" y="587" width="110" height="70" as="geometry" />
        </mxCell>
        <mxCell id="p_r1cKh_CzRkiVNsoP0s-24" value="Добавить описания" style="ellipse;whiteSpace=wrap;html=1;fontFamily=Times New Roman;" parent="1" vertex="1">
          <mxGeometry x="798" y="1067" width="110" height="70" as="geometry" />
        </mxCell>
        <mxCell id="p_r1cKh_CzRkiVNsoP0s-27" style="edgeStyle=none;curved=1;rounded=0;orthogonalLoop=1;jettySize=auto;html=1;exitX=1;exitY=0.5;exitDx=0;exitDy=0;fontSize=12;startSize=8;endSize=8;" parent="1" source="p_r1cKh_CzRkiVNsoP0s-22" target="p_r1cKh_CzRkiVNsoP0s-22" edge="1">
          <mxGeometry relative="1" as="geometry" />
        </mxCell>
        <mxCell id="p_r1cKh_CzRkiVNsoP0s-28" value="Выбрать тип тура" style="ellipse;whiteSpace=wrap;html=1;fontFamily=Times New Roman;" parent="1" vertex="1">
          <mxGeometry x="828" y="667" width="110" height="70" as="geometry" />
        </mxCell>
        <mxCell id="p_r1cKh_CzRkiVNsoP0s-40" value="&amp;lt;&amp;lt;Include&amp;gt;&amp;gt;" style="edgeLabel;html=1;align=center;verticalAlign=middle;resizable=0;points=[];fontSize=10;" parent="1" vertex="1" connectable="0">
          <mxGeometry x="797.9983574552737" y="736.9977856150607" as="geometry" />
        </mxCell>
        <mxCell id="p_r1cKh_CzRkiVNsoP0s-41" value="&amp;lt;&amp;lt;Include&amp;gt;&amp;gt;" style="edgeLabel;html=1;align=center;verticalAlign=middle;resizable=0;points=[];fontSize=10;" parent="1" vertex="1" connectable="0">
          <mxGeometry x="793.9983574552737" y="806.9977856150607" as="geometry" />
        </mxCell>
        <mxCell id="p_r1cKh_CzRkiVNsoP0s-42" value="&amp;lt;&amp;lt;Include&amp;gt;&amp;gt;" style="edgeLabel;html=1;align=center;verticalAlign=middle;resizable=0;points=[];fontSize=10;" parent="1" vertex="1" connectable="0">
          <mxGeometry x="827.9983574552737" y="861.9977856150607" as="geometry" />
        </mxCell>
        <mxCell id="p_r1cKh_CzRkiVNsoP0s-43" value="&amp;lt;&amp;lt;Include&amp;gt;&amp;gt;" style="edgeLabel;html=1;align=center;verticalAlign=middle;resizable=0;points=[];fontSize=10;" parent="1" vertex="1" connectable="0">
          <mxGeometry x="797.9983574552737" y="916.9977856150607" as="geometry" />
        </mxCell>
        <mxCell id="p_r1cKh_CzRkiVNsoP0s-44" value="&amp;lt;&amp;lt;Include&amp;gt;&amp;gt;" style="edgeLabel;html=1;align=center;verticalAlign=middle;resizable=0;points=[];fontSize=10;" parent="1" vertex="1" connectable="0">
          <mxGeometry x="807.9983574552737" y="986.9977856150607" as="geometry" />
        </mxCell>
        <mxCell id="p_r1cKh_CzRkiVNsoP0s-45" value="&amp;lt;&amp;lt;Include&amp;gt;&amp;gt;" style="edgeLabel;html=1;align=center;verticalAlign=middle;resizable=0;points=[];fontSize=10;" parent="1" vertex="1" connectable="0">
          <mxGeometry x="787.9983574552737" y="1056.9977856150608" as="geometry" />
        </mxCell>
        <mxCell id="p_r1cKh_CzRkiVNsoP0s-55" value="&amp;lt;&amp;lt;Include&amp;gt;&amp;gt;" style="edgeLabel;html=1;align=center;verticalAlign=middle;resizable=0;points=[];fontSize=10;" parent="1" vertex="1" connectable="0">
          <mxGeometry x="932.9999688208335" y="646.9961164650782" as="geometry" />
        </mxCell>
        <mxCell id="p_r1cKh_CzRkiVNsoP0s-56" value="&amp;lt;&amp;lt;Include&amp;gt;&amp;gt;" style="edgeLabel;html=1;align=center;verticalAlign=middle;resizable=0;points=[];fontSize=10;" parent="1" vertex="1" connectable="0">
          <mxGeometry x="977.9999688208335" y="726.9961164650782" as="geometry" />
        </mxCell>
        <mxCell id="p_r1cKh_CzRkiVNsoP0s-57" value="&amp;lt;&amp;lt;Include&amp;gt;&amp;gt;" style="edgeLabel;html=1;align=center;verticalAlign=middle;resizable=0;points=[];fontSize=10;" parent="1" vertex="1" connectable="0">
          <mxGeometry x="987.9999688208335" y="796.9961164650782" as="geometry" />
        </mxCell>
        <mxCell id="p_r1cKh_CzRkiVNsoP0s-58" value="&amp;lt;&amp;lt;Include&amp;gt;&amp;gt;" style="edgeLabel;html=1;align=center;verticalAlign=middle;resizable=0;points=[];fontSize=10;" parent="1" vertex="1" connectable="0">
          <mxGeometry x="1017.9999688208335" y="806.9961164650782" as="geometry">
            <mxPoint x="17" y="54" as="offset" />
          </mxGeometry>
        </mxCell>
        <mxCell id="p_r1cKh_CzRkiVNsoP0s-59" value="&amp;lt;&amp;lt;Include&amp;gt;&amp;gt;" style="edgeLabel;html=1;align=center;verticalAlign=middle;resizable=0;points=[];fontSize=10;" parent="1" vertex="1" connectable="0">
          <mxGeometry x="987.9999688208335" y="926.9961164650782" as="geometry" />
        </mxCell>
        <mxCell id="p_r1cKh_CzRkiVNsoP0s-60" value="&amp;lt;&amp;lt;Include&amp;gt;&amp;gt;" style="edgeLabel;html=1;align=center;verticalAlign=middle;resizable=0;points=[];fontSize=10;" parent="1" vertex="1" connectable="0">
          <mxGeometry x="1007.9999688208335" y="926.9961164650782" as="geometry">
            <mxPoint x="-26" y="66" as="offset" />
          </mxGeometry>
        </mxCell>
        <mxCell id="p_r1cKh_CzRkiVNsoP0s-61" value="&amp;lt;&amp;lt;Include&amp;gt;&amp;gt;" style="edgeLabel;html=1;align=center;verticalAlign=middle;resizable=0;points=[];fontSize=10;" parent="1" vertex="1" connectable="0">
          <mxGeometry x="967.9999688208335" y="1006.9961164650782" as="geometry">
            <mxPoint x="-26" y="66" as="offset" />
          </mxGeometry>
        </mxCell>
        <mxCell id="p_r1cKh_CzRkiVNsoP0s-64" value="Просмотреть&lt;div&gt;тур&lt;/div&gt;" style="ellipse;whiteSpace=wrap;html=1;fontFamily=Times New Roman;" parent="1" vertex="1">
          <mxGeometry x="-32" y="507" width="110" height="70" as="geometry" />
        </mxCell>
        <mxCell id="p_r1cKh_CzRkiVNsoP0s-69" value="&lt;font style=&quot;font-size: 10px;&quot;&gt;&amp;lt;&amp;lt;Extend&amp;gt;&amp;gt;&lt;/font&gt;" style="edgeLabel;html=1;align=center;verticalAlign=middle;resizable=0;points=[];fontSize=12;" parent="1" vertex="1" connectable="0">
          <mxGeometry x="68.00196873469429" y="612.3262314473768" as="geometry">
            <mxPoint x="64" y="-9" as="offset" />
          </mxGeometry>
        </mxCell>
      </root>
    </mxGraphModel>
  </diagram>
</mxfile>
